<?xml version="1.0" encoding="utf-8"?>
<svg width="128" height="128" viewBox="0 0 128 128" fill="none" xmlns="http://www.w3.org/2000/svg">
  <g>
    <g transform="matrix(-0.97 -0.321 -0.182 0.97 127.999 22.262)">
      <path d="M0 45.7246C0 20.4716 15.5214 0 34.6679 0C53.8145 0 69.3358 20.4716 69.3358 45.7246C69.3358 70.9776 53.8145 91.4492 34.6679 91.4492C15.5214 91.4492 0 70.9776 0 45.7246Z" fill="#301AAD" fill-rule="evenodd" transform="scale(1 1)" />
      <path d="M0 43.0205C0 19.2609 14.6034 0 32.6177 0C50.6319 0 65.2353 19.2609 65.2353 43.0205C65.2353 66.78 50.6319 86.0409 32.6177 86.0409C14.6034 86.0409 0 66.78 0 43.0205Z" fill="#2600FF" fill-rule="evenodd" transform="matrix(1 0 0 1 1.864 2.858)" />
      <g transform="matrix(0.993 0.187 -0.079 0.993 30.568 2.858)">
        <g transform="scale(1 1)">
          <path d="M-0.694313 9.02737C-0.310856 4.04169 2.18148 -4.76837e-07 4.87247 -4.76837e-07C7.56346 -4.76837e-07 9.43408 4.04169 9.05062 9.02737C8.66716 14.013 6.17483 18.0547 3.48384 18.0547C0.792853 18.0547 -1.07777 14.013 -0.694313 9.02737Z" fill="#36449C" fill-rule="evenodd" transform="matrix(0.559 -0.901 0.763 0.559 0 9.57)" />
          <path d="M0.760693 9.19263C0.340574 4.11568 2.14226 0 4.78487 9.53674e-07C7.42749 1.90735e-06 9.91032 4.11568 10.3304 9.19263C10.7506 14.2696 8.94887 18.3853 6.30626 18.3853C3.66364 18.3853 1.18081 14.2696 0.760693 9.19263Z" fill="#36449C" fill-rule="evenodd" transform="matrix(0.731 0.741 -0.628 0.731 18.001 -0)" />
          <path d="M0 9.57019C0 4.28472 2.05774 0 4.5961 0C7.13445 0 9.1922 4.28472 9.1922 9.57019C9.1922 14.8557 7.13445 19.1404 4.5961 19.1404C2.05774 19.1404 0 14.8557 0 9.57019Z" fill="#36449C" fill-rule="evenodd" transform="matrix(1 0 0 1 7.277 -0)" />
          <path d="M-0.525161 9.46132C-0.235123 4.23598 2.08142 0 4.64899 3.8147e-06C7.21656 3.8147e-06 9.06286 4.23598 8.77282 9.46132C8.48279 14.6867 6.16624 18.9226 3.59867 18.9226C1.03111 18.9226 -0.815197 14.6867 -0.525161 9.46132Z" fill="#36449C" fill-rule="evenodd" transform="matrix(-0.934 0.389 -0.33 -0.934 21.065 22.469)" />
          <path d="M-0.531891 8.91372C-0.238135 3.99081 2.20929 1.90735e-06 4.9346 0C7.65989 1.90735e-06 9.63105 3.99081 9.3373 8.91372C9.04354 13.8366 6.59612 17.8274 3.87081 17.8274C1.14551 17.8274 -0.825645 13.8366 -0.531891 8.91372Z" fill="#36449C" fill-rule="evenodd" transform="matrix(-0.391 1 -0.847 -0.391 27.194 13.315)" />
          <path d="M0.49383 8.89688C0.221095 3.98327 2.21348 0 4.94394 0C7.6744 1.90735e-06 10.109 3.98327 10.3817 8.89687C10.6544 13.8105 8.66206 17.7937 5.9316 17.7937C3.20113 17.7937 0.766564 13.8105 0.49383 8.89688Z" fill="#36449C" fill-rule="evenodd" transform="matrix(0.358 1.014 -0.859 0.358 16.469 7.074)" />
        </g>
        <g transform="matrix(1 0 0 1 1.149 1.248)">
          <path d="M-0.649442 8.14422C-0.290765 3.64629 1.97073 -4.76837e-07 4.40174 -4.76837e-07C6.83276 -9.53674e-07 8.51273 3.64629 8.15405 8.14422C7.79537 12.6422 5.53388 16.2884 3.10286 16.2884C0.671845 16.2884 -1.00812 12.6422 -0.649442 8.14422Z" fill="#006FFF" fill-rule="evenodd" transform="matrix(0.559 -0.903 0.761 0.559 0 8.653)" />
          <path d="M0.711996 8.29875C0.318771 3.71547 1.93403 0 4.31979 0C6.70554 -9.53674e-07 8.95835 3.71548 9.35157 8.29875C9.74479 12.882 8.12953 16.5975 5.74378 16.5975C3.35803 16.5975 1.10522 12.882 0.711996 8.29875Z" fill="#006FFF" fill-rule="evenodd" transform="matrix(0.731 0.743 -0.626 0.731 16.227 0)" />
          <path d="M0 8.65293C0 3.87405 1.85487 0 4.14296 0C6.43105 0 8.28592 3.87405 8.28592 8.65293C8.28592 13.4318 6.43105 17.3059 4.14296 17.3059C1.85487 17.3059 0 13.4318 0 8.65293Z" fill="#006FFF" fill-rule="evenodd" transform="translate(6.56 0)" />
          <path d="M-0.492079 8.55064C-0.220311 3.82825 1.87706 1.90735e-06 4.19253 1.90735e-06C6.50801 0 8.16476 3.82825 7.89299 8.55064C7.62122 13.273 5.52385 17.1013 3.20838 17.1013C0.892905 17.1013 -0.763845 13.273 -0.492079 8.55064Z" fill="#006FFF" fill-rule="evenodd" transform="matrix(-0.934 0.391 -0.329 -0.934 18.989 20.316)" />
          <path d="M-0.497293 8.03813C-0.222646 3.59879 1.99674 0 4.45985 0C6.92295 0 8.69704 3.59879 8.4224 8.03813C8.14775 12.4775 5.92836 16.0763 3.46526 16.0763C1.00215 16.0763 -0.771941 12.4775 -0.497293 8.03813Z" fill="#006FFF" fill-rule="evenodd" transform="matrix(-0.391 1.003 -0.845 -0.391 24.513 12.039)" />
          <path d="M0.461678 8.02242C0.2067 3.59176 2.00065 1.90735e-06 4.46858 1.90735e-06C6.93651 1.90735e-06 9.14386 3.59176 9.39884 8.02242C9.65382 12.4531 7.85987 16.0448 5.39194 16.0448C2.92401 16.0448 0.716657 12.4531 0.461678 8.02242Z" fill="#006FFF" fill-rule="evenodd" transform="matrix(0.358 1.017 -0.857 0.358 14.846 6.396)" />
        </g>
        <path d="M0.239748 4.31929C0.107339 1.93381 2.25487 -4.76837e-07 5.0364 -9.53674e-07C7.81793 0 10.1801 1.93381 10.3125 4.31929C10.445 6.70477 8.29742 8.63859 5.5159 8.63859C2.73437 8.63859 0.372157 6.70477 0.239748 4.31929Z" fill="#36449C" fill-rule="evenodd" transform="matrix(0.934 0.389 -0.33 0.934 9.958 6.241)" />
      </g>
      <path d="M-1.53138 3.58267C-0.685623 1.60402 3.39477 0 7.58243 0C11.7701 0 14.4792 1.60402 13.6335 3.58267C12.7877 5.56133 8.70734 7.16534 4.51968 7.16534C0.332014 7.16534 -2.37714 5.56132 -1.53138 3.58267Z" fill="#8CA5FF" fill-rule="evenodd" transform="matrix(0.616 -1.208 0.514 0.616 5.964 28.006)" />
      <path d="M-1.03093 2.36322C-0.461561 1.05805 2.22006 3.8147e-06 4.95864 3.8147e-06C7.69723 0 9.45572 1.05805 8.88636 2.36322C8.31699 3.66839 5.63537 4.72644 2.89679 4.72644C0.158201 4.72644 -1.60029 3.66839 -1.03093 2.36322Z" fill="#8CA5FF" fill-rule="evenodd" transform="matrix(0.656 -1.157 0.492 0.656 7.828 39.437)" />
      <path d="M-0.443478 1.04726C-0.198551 0.46888 1.13858 0 2.54308 0C3.94758 3.8147e-06 4.88761 0.46888 4.64269 1.04726C4.39776 1.62565 3.06063 2.09453 1.65613 2.09453C0.251625 2.09453 -0.6884 1.62565 -0.443478 1.04726Z" fill="#8CA5FF" fill-rule="evenodd" transform="matrix(0.602 -1.225 0.521 0.602 3.355 41.724)" />
    </g>
    <g transform="matrix(1 0 0 1 0 27.406)">
      <path d="M0 45.7246C0 20.4716 17.9315 0 40.0511 0C62.1708 0 80.1023 20.4716 80.1023 45.7246C80.1023 70.9776 62.1708 91.4492 40.0511 91.4492C17.9315 91.4492 0 70.9776 0 45.7246Z" fill="#301AAD" fill-rule="evenodd" transform="scale(1 1)" />
      <path d="M0 43.0205C0 19.2609 16.871 0 37.6825 0C58.494 0 75.365 19.2609 75.365 43.0205C75.365 66.78 58.494 86.0409 37.6825 86.0409C16.871 86.0409 0 66.78 0 43.0205Z" fill="#2600FF" fill-rule="evenodd" transform="matrix(1 0 0 1 2.153 2.858)" />
      <g transform="matrix(0.993 0.162 -0.092 0.993 35.314 2.858)">
        <g transform="matrix(1 0 0 1 -0 0)">
          <path d="M0.569013 9.97505C0.254756 4.46598 2.28078 0 5.09427 0C7.90775 -4.76837e-07 10.4433 4.46598 10.7576 9.97505C11.0718 15.4841 9.04578 19.9501 6.23229 19.9501C3.41881 19.9501 0.88327 15.4841 0.569013 9.97505Z" fill="#36449C" fill-rule="evenodd" transform="matrix(0.559 -0.78 0.882 0.559 0 9.57)" />
          <path d="M-0.603832 9.8386C-0.270344 4.40489 2.31241 -9.53674e-07 5.16492 0C8.01743 0 10.0595 4.40489 9.72601 9.8386C9.39252 15.2723 6.80976 19.6772 3.95726 19.6772C1.10475 19.6772 -0.937319 15.2723 -0.603832 9.8386Z" fill="#36449C" fill-rule="evenodd" transform="matrix(0.731 0.641 -0.725 0.731 20.797 -0)" />
          <path d="M0 9.57018C0 4.28472 2.37727 0 5.30978 0C8.24228 0 10.6196 4.28472 10.6196 9.57018C10.6196 14.8556 8.24228 19.1404 5.30978 19.1404C2.37727 19.1404 0 14.8556 0 9.57018Z" fill="#36449C" fill-rule="evenodd" transform="matrix(1 0 0 1 8.407 0)" />
          <path d="M0.396939 9.6421C0.177714 4.31692 2.35954 0 5.27018 0C8.18082 -1.90735e-06 10.7181 4.31692 10.9373 9.6421C11.1565 14.9673 8.97469 19.2842 6.06406 19.2842C3.15342 19.2842 0.616159 14.9673 0.396939 9.6421Z" fill="#36449C" fill-rule="evenodd" transform="matrix(-0.934 0.337 -0.381 -0.934 24.336 22.469)" />
          <path d="M0.445967 10.0769C0.199665 4.51159 2.25772 -3.8147e-06 5.04277 0C7.82781 0 10.2852 4.51159 10.5315 10.0769C10.7778 15.6422 8.71975 20.1538 5.9347 20.1538C3.14966 20.1538 0.692266 15.6422 0.445967 10.0769Z" fill="#36449C" fill-rule="evenodd" transform="matrix(-0.391 0.866 -0.979 -0.391 31.416 13.315)" />
          <path d="M-0.415487 10.0926C-0.18602 4.51862 2.25421 9.53674e-07 5.03492 -9.53674e-07C7.81563 -9.53674e-07 9.88382 4.51862 9.65436 10.0926C9.42489 15.6666 6.98466 20.1853 4.20395 20.1853C1.42324 20.1853 -0.644955 15.6666 -0.415487 10.0926Z" fill="#36449C" fill-rule="evenodd" transform="matrix(0.358 0.878 -0.993 0.358 19.027 7.074)" />
        </g>
        <g transform="matrix(1 0 0 1 1.327 1.248)">
          <path d="M0.48801 9.00087C0.218491 4.02983 2.06005 -4.76837e-07 4.60126 0C7.14246 0 9.421 4.02983 9.69053 9.00087C9.96005 13.9719 8.11848 18.0017 5.57728 18.0017C3.03607 18.0017 0.757531 13.9719 0.48801 9.00087Z" fill="#006FFF" fill-rule="evenodd" transform="matrix(0.559 -0.782 0.879 0.559 0 8.653)" />
          <path d="M-0.518228 8.88384C-0.232018 3.97743 2.08719 9.53674e-07 4.66187 9.53674e-07C7.23655 9.53674e-07 9.09173 3.97743 8.80552 8.88384C8.51931 13.7903 6.2001 17.7677 3.62542 17.7677C1.05074 17.7677 -0.804437 13.7903 -0.518228 8.88384Z" fill="#006FFF" fill-rule="evenodd" transform="matrix(0.731 0.643 -0.723 0.731 18.746 -0)" />
          <path d="M0 8.65292C0 3.87405 2.14289 0 4.78628 0C7.42966 0 9.57255 3.87405 9.57255 8.65292C9.57255 13.4318 7.42966 17.3058 4.78628 17.3058C2.14289 17.3058 0 13.4318 0 8.65292Z" fill="#006FFF" fill-rule="evenodd" transform="matrix(1 0 0 1 7.578 -0)" />
          <path d="M0.340997 8.71489C0.15267 3.90179 2.12766 1.90735e-06 4.75225 0C7.37685 0 9.65718 3.90179 9.84551 8.71489C10.0338 13.528 8.05885 17.4298 5.43425 17.4298C2.80965 17.4298 0.529325 13.528 0.340997 8.71489Z" fill="#006FFF" fill-rule="evenodd" transform="matrix(-0.934 0.338 -0.38 -0.934 21.937 20.316)" />
          <path d="M0.382285 9.08809C0.171155 4.06887 2.04029 1.90735e-06 4.5571 -1.90735e-06C7.07392 -1.90735e-06 9.28536 4.06888 9.49649 9.08809C9.70762 14.1073 7.83849 18.1762 5.32167 18.1762C2.80486 18.1762 0.593417 14.1073 0.382285 9.08809Z" fill="#006FFF" fill-rule="evenodd" transform="matrix(-0.391 0.868 -0.976 -0.391 28.319 12.039)" />
          <path d="M-0.356127 9.10152C-0.159443 4.07489 2.03727 9.53674e-07 4.55038 0C7.06348 0 8.94131 4.07489 8.74462 9.10152C8.54794 14.1282 6.35122 18.203 3.83812 18.203C1.32502 18.203 -0.55281 14.1282 -0.356127 9.10152Z" fill="#006FFF" fill-rule="evenodd" transform="matrix(0.358 0.881 -0.99 0.358 17.151 6.396)" />
        </g>
        <path d="M-0.181211 4.40183C-0.081131 1.97077 2.55616 9.53674e-07 5.70936 0C8.86255 4.76837e-07 11.3376 1.97077 11.2375 4.40183C11.1374 6.83289 8.50013 8.80365 5.34694 8.80365C2.19374 8.80365 -0.28129 6.83289 -0.181211 4.40183Z" fill="#36449C" fill-rule="evenodd" transform="matrix(0.934 0.337 -0.381 0.934 11.505 6.241)" />
      </g>
      <path d="M-1.1142 4.00321C-0.498844 1.7923 3.50991 0 7.83961 3.8147e-06C12.1693 0 15.1804 1.7923 14.565 4.00321C13.9497 6.21412 9.94091 8.00641 5.61121 8.00642C1.28152 8.00641 -1.72956 6.21412 -1.1142 4.00321Z" fill="#8CA5FF" fill-rule="evenodd" transform="matrix(0.616 -1.046 0.594 0.616 6.891 28.006)" />
      <path d="M-0.74576 2.62541C-0.333887 1.17543 2.30866 0 5.15653 0C8.00441 -3.8147e-06 9.97918 1.17543 9.5673 2.62541C9.15543 4.07538 6.51289 5.25081 3.66501 5.25081C0.817139 5.25082 -1.15763 4.07538 -0.74576 2.62541Z" fill="#8CA5FF" fill-rule="evenodd" transform="matrix(0.656 -1.002 0.569 0.656 9.044 39.437)" />
      <path d="M-0.32325 1.17232C-0.144722 0.524864 1.17506 0 2.62457 0C4.07407 0 5.10441 0.524864 4.92588 1.17232C4.74736 1.81977 3.42757 2.34464 1.97807 2.34464C0.528561 2.34464 -0.501774 1.81977 -0.32325 1.17232Z" fill="#8CA5FF" fill-rule="evenodd" transform="matrix(0.602 -1.06 0.602 0.602 3.876 41.724)" />
    </g>
    <path d="M0 36.2939C0 16.2493 12.6292 0 28.2081 0C43.7869 0 56.4161 16.2493 56.4161 36.2939C56.4161 56.3385 43.7869 72.5878 28.2081 72.5878C12.6292 72.5878 0 56.3385 0 36.2939Z" fill="#301AAD" fill-rule="evenodd" transform="matrix(1 0 0 1 55.986 55.412)" />
    <path d="M0 34.865C0 15.6096 12.0507 0 26.9161 0C41.7814 0 53.8322 15.6096 53.8322 34.865C53.8322 54.1204 41.7814 69.73 26.9161 69.73C12.0507 69.73 0 54.1204 0 34.865Z" fill="#2600FF" fill-rule="evenodd" transform="matrix(1 0 0 1 58.57 55.412)" />
    <path d="M0 34.865C0 15.6096 11.7615 0 26.2701 0C40.7787 0 52.5402 15.6096 52.5402 34.865C52.5402 54.1204 40.7787 69.73 26.2701 69.73C11.7615 69.73 0 54.1204 0 34.865Z" fill="#DBD6D5" fill-rule="evenodd" transform="translate(59.862 55.412)" />
    <path d="M52.2383 34.865C52.2383 34.865 52.5402 34.865 52.5402 34.865C52.5402 54.1204 40.7787 69.73 26.2701 69.73C11.7615 69.73 0 54.1204 0 34.865C0 15.6096 11.7615 0 26.2701 0C40.7787 0 52.5402 15.6096 52.5402 34.865C52.5402 34.865 52.2383 34.865 52.2383 34.865C52.2383 15.8308 40.612 0.400616 26.2701 0.400616C11.9282 0.400616 0.301857 15.8308 0.301857 34.865C0.301857 53.8992 11.9282 69.3294 26.2701 69.3294C40.612 69.3294 52.2383 53.8992 52.2383 34.865Z" fill="#000000" fill-rule="evenodd" transform="translate(59.862 55.412)" />
    <path d="M0 3.14356C0 1.40742 1.06046 0 2.36861 0C3.67677 0 4.73723 1.40742 4.73723 3.14356C4.73723 4.87971 3.67677 6.28713 2.36861 6.28713C1.06046 6.28713 0 4.87971 0 3.14356Z" fill="#757575" fill-rule="evenodd" transform="translate(83.979 85.133)" />
    <path d="M0.861313 0L0.861313 0C1.33707 0 1.72263 0.385559 1.72263 0.861313L1.72263 23.1441C1.72263 23.6199 1.33707 24.0054 0.861313 24.0054L0.861313 24.0054C0.385559 24.0054 0 23.6199 0 23.1441L0 0.861313C0 0.385559 0.385559 0 0.861313 0L0.861313 0Z" fill="#757575" transform="matrix(1 0 0 1 84.84 66.272)" />
    <path d="M1.03602 0L1.03602 0C1.60828 0 1.98149 0.320557 1.86975 0.71608L-1.61842 13.0641C-1.73016 13.4596 -2.28448 13.7801 -2.85674 13.7802L-2.85674 13.7802C-3.42899 13.7801 -3.8022 13.4596 -3.69046 13.0641L-0.202286 0.71608C-0.0905457 0.320541 0.463768 0 1.03602 0L1.03602 0Z" fill="#757575" transform="matrix(0.643 -1.017 0.577 0.643 84.84 88.563)" />
  </g>
</svg>