<svg xmlns="http://www.w3.org/2000/svg" viewBox="0 0 512 512">
  <defs>
    <linearGradient id="bg" x1="0" y1="0" x2="1" y2="1">
      <stop offset="0" stop-color="#0a1222" />
      <stop offset="1" stop-color="#111827" />
    </linearGradient>
    <linearGradient id="frost" x1="0" y1="0" x2="0" y2="1">
      <stop offset="0" stop-color="#7dd3fc" />
      <stop offset="1" stop-color="#0ea5e9" />
    </linearGradient>
  </defs>
  <rect width="512" height="512" rx="116" fill="url(#bg)" />
  <circle cx="428" cy="90" r="20" fill="#60a5fa" opacity="0.8" />
  <path
    d="M124 154h264c14.4 0 26 11.6 26 26v26H98V180c0-14.4 11.6-26 26-26z"
    fill="url(#frost)"
  />
  <path
    d="M136 222h240c20.9 0 38 17.1 38 38v88c0 40.9-33.1 74-74 74H172c-40.9 0-74-33.1-74-74v-88c0-20.9 17.1-38 38-38z"
    fill="#1f2937"
    stroke="#67e8f9"
    stroke-width="16"
  />
  <circle cx="256" cy="318" r="58" fill="#22d3ee" />
  <path d="M256 274v40l24 24" stroke="#0f172a" stroke-width="16" stroke-linecap="round" />
  <path
    d="M170 360c12.7 15.8 32.2 26 54.1 26h68.2"
    stroke="#bae6fd"
    stroke-width="10"
    fill="none"
    stroke-linecap="round"
  />
</svg>
