<svg xmlns="http://www.w3.org/2000/svg" viewBox="0 0 1024 1024">
  <defs>
    <linearGradient id="bg" x1="0" y1="0" x2="1" y2="1">
      <stop offset="0" stop-color="#0a1222" />
      <stop offset="1" stop-color="#111827" />
    </linearGradient>
    <linearGradient id="frost" x1="0" y1="0" x2="0" y2="1">
      <stop offset="0" stop-color="#7dd3fc" />
      <stop offset="1" stop-color="#0ea5e9" />
    </linearGradient>
  </defs>
  <rect width="1024" height="1024" rx="224" fill="url(#bg)" />
  <circle cx="860" cy="178" r="40" fill="#60a5fa" opacity="0.8" />
  <path
    d="M246 306h532c29 0 52 23 52 52v50H194v-50c0-29 23-52 52-52z"
    fill="url(#frost)"
  />
  <path
    d="M270 440h484c42 0 76 34 76 76v176c0 83-67 150-150 150H344c-83 0-150-67-150-150V516c0-42 34-76 76-76z"
    fill="#1f2937"
    stroke="#67e8f9"
    stroke-width="30"
  />
  <circle cx="512" cy="636" r="116" fill="#22d3ee" />
  <path d="M512 546v82l48 48" stroke="#0f172a" stroke-width="30" stroke-linecap="round" />
  <path
    d="M338 720c25 31 63 50 106 50h136"
    stroke="#bae6fd"
    stroke-width="18"
    fill="none"
    stroke-linecap="round"
  />
</svg>
